# xmcd
#
# Track frame offsets:
#	150
#	13650
#	26720
#	47395
#	57315
#	76640
#	91850
#	106540
#	124155
#	137345
#	157125
#	173690
#	194900
#	208005
#	226135
#
# Disc length: 3108 seconds
#
# Revision: 1
# Processed by: cddbd v1.5.2PL0 Copyright (c) Steve Scherf et al.
# Submitted via: audiograbber 1.83.01
#
DISCID=b70c220f
DTITLE=Hannes Otahal - Boogie Woogie Walker
DYEAR=2014
DGENRE=Blues
TTITLE0=Rock That Boogie
TTITLE1=Boogie Woogie Walker
TTITLE2=Dark And Blue
TTITLE3=Monday Struggle
TTITLE4=Boogie Woogie Stomp
TTITLE5=Dupree Blues
TTITLE6=Bear Cat Crawl
TTITLE7=How Long Blues
TTITLE8=Boogie Woogie Jump
TTITLE9=Rhythm Changes Battle
TTITLE10=Country Boogie
TTITLE11=Just My Blues
TTITLE12=Chicago Breakdown
TTITLE13=Axel's Special
TTITLE14=Anitra's Dance
EXTD=
EXTT0=
EXTT1=
EXTT2=
EXTT3=
EXTT4=
EXTT5=
EXTT6=
EXTT7=
EXTT8=
EXTT9=
EXTT10=
EXTT11=
EXTT12=
EXTT13=
EXTT14=
PLAYORDER=
